<svg data-v-0dd9719b="" version="1.0" xmlns="http://www.w3.org/2000/svg" xmlns:xlink="http://www.w3.org/1999/xlink" width="100%" height="100%" viewBox="0 0 340.000000 250.000000" preserveAspectRatio="xMidYMid meet" color-interpolation-filters="sRGB" style="margin: auto;"> <rect data-v-0dd9719b="" x="0" y="0" width="100%" height="100%" fill="#fff" fill-opacity="1" class="background"></rect> <rect data-v-0dd9719b="" x="0" y="0" width="100%" height="100%" fill="url(#watermark)" fill-opacity="1" class="watermarklayer"></rect> <g data-v-0dd9719b="" fill="#00a5a9" class="icon-text-wrapper icon-svg-group iconsvg" transform="translate(50.100006103515625,96.98356437683105)"><g class="iconsvg-imagesvg" transform="translate(0,0)"><g><rect fill="#00a5a9" fill-opacity="0" stroke-width="2" x="0" y="0" width="60" height="56.032872618602916" class="image-rect"></rect> <svg x="0" y="0" width="60" height="56.032872618602916" filtersec="colorsb588995667" class="image-svg-svg primary" style="overflow: visible;"><svg xmlns="http://www.w3.org/2000/svg" viewBox="13.677627563476562 89.5285873413086 1476.3446044921875 1378.7261962890625"><g fill-rule="evenodd" clip-rule="evenodd"><path fill="#F08D00" d="M358.406 181.943C550.705 70.924 774.3 63.149 965.028 141.368l-57.756 33.342c-167.65-56.601-357.884-43.599-523.129 51.804-305.012 176.1-409.561 566.267-233.459 871.279 176.096 305.007 566.264 409.55 871.276 233.453 185.105-106.868 296.369-292.59 315.869-490.267l53.858-31.089c-10.432 226.913-132.717 443.941-343.995 565.929-329.625 190.309-751.274 77.33-941.577-252.3-190.313-329.618-77.328-751.268 252.291-941.576zm699.421 5.909l-51.649 29.82a637.01 637.01 0 0 1 84.719 54.722l47.961-27.691a686.894 686.894 0 0 0-81.031-56.851zm147.339 118.633l-45.885 26.491c21.022 21.533 40.692 44.789 58.827 69.669l44.813-25.873a687.636 687.636 0 0 0-57.755-70.287zm103.789 143.775l-44.605 25.751a639.248 639.248 0 0 1 37.178 82.169l45.185-26.085a690.8 690.8 0 0 0-37.758-81.835zm64.195 166.634l-46.629 26.921a633.982 633.982 0 0 1 13.22 95.999l49.409-28.525a685.037 685.037 0 0 0-16-94.395z"></path><path fill="#00A5A9" d="M413.555 277.454c69.461-40.106 143.791-64.161 218.694-73.335-29.125 38.673-53.036 80.618-71.49 124.693L169.17 554.897c47.212-112.791 130.338-211.603 244.385-277.443zm630.931-181.966L540.023 386.74 230.588 565.392l-82.155 47.433c-16.611 55.521-24.915 113.473-24.395 171.828l391.585-226.088a581.895 581.895 0 0 1 2.5-59.114L1153.08 132.86a582.853 582.853 0 0 0-108.594-37.372zm198.664 89.001L517.768 603.288 318.795 718.167 126.178 829.375a574.869 574.869 0 0 0 30.16 140.325l391.59-226.085a575.151 575.151 0 0 1-14.774-49.142l781.316-451.095a576.018 576.018 0 0 0-71.32-58.889zm131.619 127.706L562.554 781.127l-155.556 89.811-236.034 136.274a581.113 581.113 0 0 0 30.659 61.169c11.552 20.015 24.156 39.053 37.64 57.135l391.596-226.085a589.923 589.923 0 0 1-28.212-41.383l818.67-472.66c-2.883-5.38-1.587-3.39-8.903-16.059-7.316-12.669-24.156-39.047-37.645-57.134zm82.93 155.819l-801.665 462.84-160.828 92.858-230.763 133.228a574.66 574.66 0 0 0 106.449 96.282l391.59-226.085a576.151 576.151 0 0 1-42.758-32.99l760.946-439.333a574.74 574.74 0 0 0-22.971-86.8zm32.3 185.047a580.476 580.476 0 0 1-8.638 105.055l-585.923 338.286a584.178 584.178 0 0 0 65.703 19.738l-391.59 226.085c-56.381-13.378-110.733-35.155-160.998-64.789l174.854-100.954 216.736-125.131 689.856-398.29zm-324.587 474.515c-45.396 60.283-103.396 112.623-172.863 152.732-114.035 65.835-241.178 88.43-362.46 72.923l391.591-226.085c47.397 6.062 95.681 6.323 143.732.43z"></path></g></svg></svg> <!----></g></g> <g transform="translate(67,4.325185775756836)"><g data-gra="path-name" fill-rule="" class="tp-name iconsvg-namesvg" transform="translate(0,0)"><g transform="scale(1)"><g><path d="M32.4-19.1L32.4-19.06 32.4-16.18 32.4 0 29.21 0 28.8 0 10.8 0Q9.02 0 7.75-1.27 6.48-2.54 6.48-4.32L6.48-4.32 6.48-16.18 3.6-16.18 10.42-29.52 3.6-29.52 3.6-32.4 11.93-32.4 16.06-32.4 32.4-32.4 32.4-29.52 14.59-29.52 9.23-19.1 32.4-19.1ZM28.8-16.18L10.08-16.18 10.08-2.88 28.8-2.88 28.8-16.18ZM55.38-19.06L56.44-17.28 56.44-4.13Q56.44-3.16 56.16-2.05 55.88-0.94 55.28 0L55.28 0 51.62 0Q52.53-1.38 52.75-3.1L52.75-3.1 39.6 0 39.6-3.44 52.84-6.57 52.84-8.73 39.6-5.6 39.6-9.08 52.84-12.18 52.84-16.28 51.21-19.06 39.6-19.06 39.6-21.94 68.4-21.94 68.4-19.06 55.38-19.06ZM68.4-12.96L61.48-12.96 68.4 0 64.46 0 57.51-12.96 57.51-15.84 68.4-15.84 68.4-12.96ZM39.6-23.76L39.6-26.64 39.6-29.52 52.75-29.52 51.09-32.4 55.25-32.4 56.91-29.52 68.4-29.52 68.4-26.64 68.4-23.76 64.8-23.76 64.8-26.64 43.2-26.64 43.2-23.76 39.6-23.76ZM51.03-17.37L51.03-13.93 39.6-11.24 39.6-14.68 51.03-17.37ZM91.85-32.4L93.54-29.52 93.51-29.52 104.4-29.52 104.4-26.64 80.42-26.64 80.42-4.13Q80.42-3.16 80.14-2.05 79.86-0.94 79.26 0L79.26 0 75.6 0Q76.82-1.82 76.82-4.13L76.82-4.13 76.82-26.64 76.82-29.52 80.42-29.52 89.37-29.52 87.68-32.4 91.85-32.4ZM82.21-2.88L91.5-2.88 91.5-16.18 82.21-16.18 82.21-19.06 91.5-19.06 91.5-24.82 95.1-24.82 95.1-19.06 104.4-19.06 104.4-16.18 95.1-16.18 95.1-2.88 104.4-2.88 104.4 0 95.1 0 91.5 0 82.21 0 82.21-2.88ZM140.4-16.9L127.82-16.9 127.82-12.96 140.4-12.96 140.4-10.08 127.82-10.08 127.82-2.85 140.4-2.85 140.4 0 127.82 0 124.18 0 111.6 0 111.6-2.85 124.18-2.85 124.18-10.08 111.6-10.08 111.6-12.96 124.18-12.96 124.18-16.9 111.6-16.9 111.6-19.78 124.18-19.78 127.82-19.78 140.4-19.78 140.4-16.9ZM136.64-8.98L140.4-8.98 138.77-3.94 134.98-3.94 136.64-8.98ZM113.23-3.94L111.6-8.98 115.36-8.98 117.02-3.94 113.23-3.94ZM136.64-21.57L134.08-29.49 121.24-29.49 121.24-32.37 133.14-32.37 134.42-32.37 136.93-32.37 140.4-21.57 136.64-21.57ZM115.07-32.37L118.86-32.37 115.39-21.57 111.6-21.57 115.07-32.37ZM162-12.21L162-4.6 165.6-4.16 165.6-14.02 157.4-14.02 157.4-16.9 165.6-16.9 169.2-16.9 176.4-16.9 176.4-14.02 169.2-14.02 169.2-11.14 176.4-11.14 176.4-8.26 169.2-8.26 169.2-3.73 176.4-2.85 176.4 0 162-1.72 162-4.13Q162-1.85 160.87 0.03L160.87 0.03 157.18 0.03Q158.4-1.82 158.4-4.13L158.4-4.13 158.4-12.21 162-12.21ZM154.08-13.81L156.3-14.59 156.3-11.71 154.08-10.93 154.08-4.13Q154.08-1.82 152.92 0.03L152.92 0.03 149.26 0.03Q150.48-1.82 150.48-4.13L150.48-4.13 150.48-9.64 147.6-8.64 147.6-11.49 150.48-12.52 150.48-25.54 147.6-25.54 147.6-28.42 150.48-28.42 150.48-32.37 154.08-32.37 154.08-28.42 156.3-28.42 156.3-25.54 154.08-25.54 154.08-13.81ZM171.7-20.85L171.7-29.49 162-29.49 162-26.61 171.52-26.61 169.86-23.73 162-23.73 162-20.85 171.7-20.85ZM175.3-29.49L175.3-20.85 175.3-17.97 171.7-17.97 162.72-17.97Q160.94-17.97 159.67-19.25 158.4-20.54 158.4-22.29L158.4-22.29 158.4-23.76 158.4-26.61 158.4-29.49 158.4-32.37 162-32.37 171.7-32.37 175.3-32.37 175.3-29.49Z" transform="translate(-3.5999999046325684, 32.400001525878906)"></path></g> <!----> <!----> <!----> <!----> <!----> <!----> <!----></g></g> <g data-gra="path-slogan" fill-rule="" class="tp-slogan iconsvg-slogansvg" fill="#00a5a9" transform="translate(5,38.43000030517578)"><rect x="0" height="1" y="3.9750003814697266" width="19.45417022705078"></rect> <rect height="1" y="3.9750003814697266" width="19.45417022705078" x="143.34581756591797"></rect> <g transform="translate(22.45417022705078,0)"><g transform="scale(1)"><path d="M7.17-6.09L7.17-6.09L6.09-6.09Q6-7.73 3.94-7.83L3.94-7.83Q2.02-7.78 2.02-6.33L2.02-6.33Q2.02-5.39 3.05-5.25L3.05-5.25L5.48-4.69Q7.41-4.22 7.41-2.34L7.41-2.34Q7.36 0.05 4.03 0.14L4.03 0.14Q2.20 0.14 1.45-0.61L1.45-0.61Q0.52-1.31 0.56-2.77L0.56-2.77L1.69-2.77Q1.73-0.80 4.03-0.75L4.03-0.75Q6.28-0.80 6.33-2.20L6.33-2.20Q6.52-3.38 4.45-3.75L4.45-3.75L2.67-4.13Q0.84-4.64 0.84-6.19L0.84-6.19Q0.98-8.72 3.84-8.81L3.84-8.81Q7.08-8.81 7.17-6.09ZM10.03-5.06L14.53-5.06L14.53-8.58L15.70-8.58L15.70 0L14.53 0L14.53-3.98L10.03-3.98L10.03 0L8.86 0L8.86-8.58L10.03-8.58L10.03-5.06ZM17.67-8.58L18.84-8.58L18.84 0L17.67 0L17.67-8.58ZM20.11-1.92L20.11-2.77L21.19-2.77L21.19-2.16Q21.19-0.75 22.50-0.75L22.50-0.75Q23.86-0.75 23.86-2.25L23.86-2.25L23.86-8.58L25.03-8.58L25.03-2.30Q24.98 0.09 22.55 0.14L22.55 0.14Q20.25 0.09 20.11-1.92L20.11-1.92ZM27-8.58L28.17-8.58L28.17 0L27 0L27-8.58ZM35.81 0L34.97-2.48L31.50-2.48L30.61 0L29.44 0L32.67-8.58L33.98-8.58L37.08 0L35.81 0ZM33.23-7.31L31.88-3.52L34.55-3.52L33.28-7.31L33.23-7.31ZM38.95-1.03L44.25-1.03L44.25 0L37.50 0L37.50-0.94L42.75-7.59L37.88-7.59L37.88-8.58L44.25-8.58L44.25-7.59L38.95-1.03ZM46.55-5.06L51.05-5.06L51.05-8.58L52.22-8.58L52.22 0L51.05 0L51.05-3.98L46.55-3.98L46.55 0L45.38 0L45.38-8.58L46.55-8.58L46.55-5.06ZM59.67-3.19L59.67-8.58L60.84-8.58L60.84-3.05Q60.70 0.05 57.33 0.14L57.33 0.14Q54.19 0.05 54.05-2.86L54.05-2.86L54.05-8.58L55.22-8.58L55.22-3.19Q55.27-0.84 57.38-0.80L57.38-0.80Q59.67-0.84 59.67-3.19L59.67-3.19ZM68.30 0L67.45-2.48L63.98-2.48L63.09 0L61.92 0L65.16-8.58L66.47-8.58L69.56 0L68.30 0ZM65.72-7.31L64.36-3.52L67.03-3.52L65.77-7.31L65.72-7.31ZM72-8.58L76.31-1.64L76.31-8.58L77.44-8.58L77.44 0L76.13 0L71.77-6.94L71.72-6.94L71.72 0L70.59 0L70.59-8.58L72-8.58ZM85.64-3.61L83.02-3.61L83.02-4.59L86.77-4.59L86.77 0L86.02 0L85.73-1.08Q84.75 0.09 82.92 0.14L82.92 0.14Q81.19 0.14 80.25-0.75L80.25-0.75Q78.84-2.06 78.89-4.36L78.89-4.36Q79.22-8.63 82.97-8.81L82.97-8.81Q86.16-8.63 86.63-6L86.63-6L85.50-6Q85.03-7.78 82.92-7.83L82.92-7.83Q80.25-7.64 80.11-4.31L80.11-4.31Q80.11-0.75 82.97-0.75L82.97-0.75Q84-0.75 84.75-1.31L84.75-1.31Q85.69-2.06 85.64-3.61L85.64-3.61ZM91.17-1.92L91.17-2.77L92.25-2.77L92.25-2.16Q92.25-0.75 93.56-0.75L93.56-0.75Q94.92-0.75 94.92-2.25L94.92-2.25L94.92-8.58L96.09-8.58L96.09-2.30Q96.05 0.09 93.61 0.14L93.61 0.14Q91.31 0.09 91.17-1.92L91.17-1.92ZM98.06-8.58L99.23-8.58L99.23 0L98.06 0L98.06-8.58ZM102.61-8.58L106.92-1.64L106.92-8.58L108.05-8.58L108.05 0L106.73 0L102.38-6.94L102.33-6.94L102.33 0L101.20 0L101.20-8.58L102.61-8.58ZM112.03-7.59L109.13-7.59L109.13-8.58L116.06-8.58L116.06-7.59L113.16-7.59L113.16 0L112.03 0L112.03-7.59ZM117.28-8.58L118.45-8.58L118.45 0L117.28 0L117.28-8.58Z" transform="translate(-0.5602678571428572, 8.8125)"></path></g></g></g></g></g><defs v-gra="od"></defs></svg>